HIERARCHY
ROOT Hips
{
	OFFSET 0.000000 0.000000 0.000000
	CHANNELS 6 Xposition Yposition Zposition Zrotation Yrotation Xrotation 
	JOINT LHipJoint
	{
		OFFSET 0.000000 0.000000 0.000000
		CHANNELS 3 Zrotation Yrotation Xrotation
		JOINT LeftUpLeg
		{
			OFFSET 1.363060 -1.794630 0.839290
			CHANNELS 3 Zrotation Yrotation Xrotation
			JOINT LeftLeg
			{
				OFFSET 2.448110 -6.726130 0.000000
				CHANNELS 3 Zrotation Yrotation Xrotation
				JOINT LeftFoot
				{
					OFFSET 2.562200 -7.039590 0.000000
					CHANNELS 3 Zrotation Yrotation Xrotation
					JOINT LeftToeBase
					{
						OFFSET 0.157640 -0.433110 2.322550
						CHANNELS 3 Zrotation Yrotation Xrotation
						End Site
						{
							OFFSET 0.000000 0.000000 0.000000
						}
					}
				}
			}
		}
	}
	JOINT RHipJoint
	{
		OFFSET 0.000000 0.000000 0.000000
		CHANNELS 3 Zrotation Yrotation Xrotation
		JOINT RightUpLeg
		{
			OFFSET -1.305520 -1.794630 0.839290
			CHANNELS 3 Zrotation Yrotation Xrotation
			JOINT RightLeg
			{
				OFFSET -2.542530 -6.985550 0.000000
				CHANNELS 3 Zrotation Yrotation Xrotation
				JOINT RightFoot
				{
					OFFSET -2.568260 -7.056230 0.000000
					CHANNELS 3 Zrotation Yrotation Xrotation
					JOINT RightToeBase
					{
						OFFSET -0.164730 -0.452590 2.363150
						CHANNELS 3 Zrotation Yrotation Xrotation
						End Site
						{
							OFFSET 0.000000 0.000000 0.000000
						}
					}
				}
			}
		}
	}
	JOINT LowerBack
	{
		OFFSET 0.000000 0.000000 0.000000
		CHANNELS 3 Zrotation Yrotation Xrotation
		JOINT Spine
		{
			OFFSET 0.028270 2.035590 -0.193380
			CHANNELS 3 Zrotation Yrotation Xrotation
			JOINT Spine1
			{
				OFFSET 0.056720 2.048850 -0.042750
				CHANNELS 3 Zrotation Yrotation Xrotation
				JOINT Neck
				{
					OFFSET 0.000000 0.000000 0.000000
					CHANNELS 3 Zrotation Yrotation Xrotation
					JOINT Neck1
					{
						OFFSET -0.054170 1.746240 0.172020
						CHANNELS 3 Zrotation Yrotation Xrotation
						JOINT Head
						{
							OFFSET 0.104070 1.761360 -0.123970
							CHANNELS 3 Zrotation Yrotation Xrotation
							End Site
							{
								OFFSET 0.000000 0.000000 0.000000
							}
						}
					}
				}
				JOINT LeftShoulder
				{
					OFFSET 0.000000 0.000000 0.000000
					CHANNELS 3 Zrotation Yrotation Xrotation
					JOINT LeftArm
					{
						OFFSET 3.362410 1.200890 -0.311210
						CHANNELS 3 Zrotation Yrotation Xrotation
						JOINT LeftForeArm
						{
							OFFSET 4.983000 -0.000000 -0.000000
							CHANNELS 3 Zrotation Yrotation Xrotation
							JOINT LeftHand
							{
								OFFSET 3.483560 -0.000000 -0.000000
								CHANNELS 3 Zrotation Yrotation Xrotation
								JOINT LeftFingerBase
								{
									OFFSET 0.000000 0.000000 0.000000
									CHANNELS 3 Zrotation Yrotation Xrotation
									JOINT LeftHandIndex1
									{
										OFFSET 0.715260 -0.000000 -0.000000
										CHANNELS 3 Zrotation Yrotation Xrotation
										End Site
										{
											OFFSET 0.000000 0.000000 0.000000
										}
									}
								}
								JOINT LThumb
								{
									OFFSET 0.000000 0.000000 0.000000
									CHANNELS 3 Zrotation Yrotation Xrotation
									End Site
									{
										OFFSET 0.000000 0.000000 0.000000
									}
								}
							}
						}
					}
				}
				JOINT RightShoulder
				{
					OFFSET 0.000000 0.000000 0.000000
					CHANNELS 3 Zrotation Yrotation Xrotation
					JOINT RightArm
					{
						OFFSET -3.136600 1.374050 -0.404650
						CHANNELS 3 Zrotation Yrotation Xrotation
						JOINT RightForeArm
						{
							OFFSET -5.241900 -0.000000 -0.000000
							CHANNELS 3 Zrotation Yrotation Xrotation
							JOINT RightHand
							{
								OFFSET -3.444170 -0.000000 -0.000000
								CHANNELS 3 Zrotation Yrotation Xrotation
								JOINT RightFingerBase
								{
									OFFSET 0.000000 0.000000 0.000000
									CHANNELS 3 Zrotation Yrotation Xrotation
									JOINT RightHandIndex1
									{
										OFFSET -0.622530 -0.000000 -0.000000
										CHANNELS 3 Zrotation Yrotation Xrotation
										End Site
										{
											OFFSET 0.000000 0.000000 0.000000
										}
									}
								}
								JOINT RThumb
								{
									OFFSET 0.000000 0.000000 0.000000
									CHANNELS 3 Zrotation Yrotation Xrotation
									End Site
									{
										OFFSET 0.000000 0.000000 0.000000
									}
								}
							}
						}
					}
				}
			}
		}
	}
}
MOTION
Frames: 10
Frame Time: 0.008333
7.426190 15.718536 2.395326 8.014838 55.190436 26.921352 -11.329255 2.202706 1.198184 -1.833859 -0.143606 -31.938877 1.191533 3.574318 74.739302 2.442777 15.306409 -13.367581 -1.525700 -0.000000 -14.698300 8.531910 -1.844383 3.566737 21.532617 11.082068 -27.148665 2.938733 -1.914285 43.741282 -3.262924 0.056272 -40.702073 -177.734101 -0.000000 -25.947100 1.090829 -1.149332 -5.847283 -0.664665 -1.562313 -4.338857 -7.373252 -1.549526 -1.882841 10.654537 -5.788992 -7.962409 -4.247341 -0.321330 -0.155992 0.000000 0.000000 0.000000 1.311478 12.468719 0.949082 -70.970659 16.707348 16.334275 179.740136 -88.068391 179.924730 23.399574 -11.740394 -2.552741 -0.341280 0.396334 -0.000000 0.000000 0.000000 0.000000 0.000000 0.000000 0.000000 14.860905 1.568668 -1.234008 78.300031 15.111772 33.564047 179.770772 78.391232 179.920188 -10.623254 26.838716 -2.703651 0.209990 -1.122167 0.000000 0.000000 0.000000 0.000000 0.000000 0.000000 0.000000 
7.592700 15.793818 2.513418 8.491105 54.848287 27.709964 -11.138502 1.960769 1.634264 -2.021626 -2.227379 -33.469370 1.148175 3.453424 74.167111 2.412751 14.873703 -13.816392 -1.589500 -0.000000 -14.083800 8.653301 -1.832525 3.545088 20.785252 10.876182 -25.842081 2.994465 -1.688580 41.694640 -3.110439 0.456573 -39.936144 -177.979200 0.000000 -25.136500 0.693370 -0.872445 -6.208277 -0.780398 -1.271376 -4.409951 -7.373424 -1.251252 -1.881489 10.462930 -5.457981 -7.905377 -4.247319 -0.322351 -0.146699 0.000000 0.000000 0.000000 1.447574 12.805350 0.949981 -70.113304 17.652295 16.485836 179.764755 -87.325466 179.927409 23.251252 -11.795632 -2.547021 -0.340778 0.392534 -0.000000 0.000000 0.000000 0.000000 0.000000 0.000000 0.000000 14.634761 2.121351 -1.121620 79.281103 16.672705 35.903926 179.720089 77.983880 179.926804 -10.013779 27.234827 -2.591580 0.209542 -1.160263 -0.000000 0.000000 0.000000 0.000000 0.000000 0.000000 0.000000 
7.763949 15.883074 2.637215 8.955326 54.529498 28.477021 -10.937360 1.728755 2.093411 -2.116847 -4.273371 -34.915438 1.087241 3.318207 73.294520 2.392769 14.497119 -14.163641 -1.628600 -0.000000 -13.535301 8.776301 -1.837653 3.527002 20.031419 10.572804 -24.439189 3.040727 -1.441559 39.386099 -2.906138 0.903004 -38.781463 -178.264700 -0.000000 -24.330200 0.297665 -0.587664 -6.601769 -0.896513 -0.973343 -4.487092 -7.376241 -0.946092 -1.866528 10.278042 -5.156554 -7.847146 -4.243705 -0.323338 -0.135537 0.000000 0.000000 0.000000 1.557757 13.162485 0.936322 -69.207719 18.556535 16.654663 179.788788 -86.613298 179.930446 23.083047 -11.905661 -2.550593 -0.340469 0.389110 -0.000000 0.000000 0.000000 0.000000 0.000000 0.000000 0.000000 14.405274 2.639555 -1.008406 80.240066 18.125653 38.195387 179.656668 77.544148 179.934984 -9.331990 27.596951 -2.452515 0.208194 -1.197284 -0.000000 0.000000 0.000000 0.000000 0.000000 0.000000 0.000000 
7.939952 15.985588 2.766567 9.384639 54.219957 29.200805 -10.728277 1.509592 2.567417 -2.116698 -6.251796 -36.265607 1.011268 3.169983 72.122783 2.383651 14.181891 -14.409757 -1.645700 -0.000000 -13.068000 8.900813 -1.863685 3.514865 19.283585 10.179350 -22.943072 3.074908 -1.177404 36.819970 -2.642801 1.410876 -37.184807 -178.591900 -0.000000 -23.526000 -0.089683 -0.292334 -7.021934 -1.012220 -0.665741 -4.569348 -7.382889 -0.631571 -1.837414 10.104787 -4.876561 -7.786117 -4.236593 -0.324298 -0.122012 0.000000 0.000000 0.000000 1.647705 13.551574 0.908495 -68.266914 19.401262 16.836089 179.812547 -85.956611 179.933786 22.918346 -12.044240 -2.560167 -0.340578 0.385493 -0.000000 0.000000 0.000000 0.000000 0.000000 0.000000 0.000000 14.177272 3.131496 -0.898461 81.176288 19.453516 40.415475 179.582109 77.094014 179.944629 -8.571011 27.901727 -2.282460 0.205319 -1.232259 -0.000000 0.000000 0.000000 0.000000 0.000000 0.000000 0.000000 
8.120329 16.100358 2.901427 9.770977 53.905101 29.869423 -10.512254 1.306849 3.047576 -2.031917 -8.139962 -37.502135 0.923296 3.008656 70.648140 2.385500 13.931343 -14.538732 -1.639101 0.000000 -12.737500 9.030233 -1.913459 3.509340 18.543385 9.701336 -21.359518 3.093396 -0.902499 34.008295 -2.316567 1.988833 -35.099106 -178.953200 -0.000000 -22.659600 -0.469190 0.014402 -7.460274 -1.128348 -0.347107 -4.658378 -7.396218 -0.306420 -1.807699 9.946531 -4.609904 -7.710374 -4.227219 -0.325468 -0.102649 0.000000 0.000000 0.000000 1.709250 13.930996 0.866593 -67.292733 20.236224 16.989928 179.836122 -85.330487 179.937378 22.765982 -12.186349 -2.571442 -0.340985 0.381168 -0.000000 0.000000 0.000000 0.000000 0.000000 0.000000 0.000000 13.958537 3.604775 -0.789326 82.091797 20.635893 42.543383 179.498497 76.659768 179.955582 -7.729791 28.128396 -2.080020 0.200433 -1.264244 -0.000000 0.000000 0.000000 0.000000 0.000000 0.000000 0.000000 
8.304667 16.225927 3.041630 10.096690 53.574226 30.465958 -10.291858 1.122808 3.524232 -1.867108 -9.911973 -38.613286 0.826704 2.834499 68.871682 2.396437 13.737361 -14.536074 -1.605400 0.000000 -12.524400 9.165766 -1.989901 3.512913 17.819898 9.159498 -19.699429 3.091911 -0.625736 30.972255 -1.932561 2.620672 -32.490149 -179.324100 0.000000 -21.613300 -0.838828 0.333256 -7.909044 -1.244252 -0.016148 -4.749345 -7.414456 0.030926 -1.763543 9.807555 -4.354949 -7.632299 -4.213217 -0.326461 -0.081147 0.000000 0.000000 0.000000 1.774032 14.365435 0.812401 -66.305827 20.974579 17.162957 179.859831 -84.786922 179.941118 22.650059 -12.308073 -2.582123 -0.342288 0.375964 -0.000000 0.000000 0.000000 0.000000 0.000000 0.000000 0.000000 13.742070 4.061795 -0.692849 82.997051 21.669628 44.561659 179.409828 76.257159 179.967530 -6.817293 28.263375 -1.847702 0.193182 -1.292358 -0.000000 0.000000 0.000000 0.000000 0.000000 0.000000 0.000000 
8.492084 16.360716 3.187150 10.372494 53.216713 30.992012 -10.066890 0.961321 3.988969 -1.649748 -11.556052 -39.576845 0.725102 2.646357 66.786315 2.414496 13.596075 -14.365027 -1.535400 -0.000000 -12.484099 9.314698 -2.094525 3.522471 17.102990 8.556485 -17.980133 3.065416 -0.360047 27.755416 -1.500866 3.286404 -29.335583 -179.674200 -0.000000 -20.170501 -1.208459 0.661786 -8.356249 -1.362220 0.326530 -4.843756 -7.439875 0.379643 -1.722237 9.689662 -4.109856 -7.539894 -4.195964 -0.327526 -0.054132 0.000000 0.000000 0.000000 1.834498 14.797166 0.746374 -65.304830 21.684664 17.311608 179.883467 -84.277693 179.944932 22.562796 -12.394006 -2.588609 -0.344162 0.369750 -0.000000 0.000000 0.000000 0.000000 0.000000 0.000000 0.000000 13.536017 4.503470 -0.604372 83.895896 22.543389 46.456589 179.319775 75.912790 179.980124 -5.859012 28.300371 -1.594201 0.183850 -1.315885 -0.000000 0.000000 0.000000 0.000000 0.000000 0.000000 0.000000 
8.681805 16.502614 3.337732 10.601505 52.826068 31.446310 -9.838579 0.825182 4.434534 -1.402415 -13.060008 -40.379071 0.622104 2.444061 64.392194 2.435916 13.494127 -13.993229 -1.419800 0.000000 -12.628200 9.481485 -2.229016 3.535226 16.391232 7.901641 -16.231195 3.010075 -0.121363 24.423857 -1.041706 3.947770 -25.635099 -179.962900 0.000000 -18.043201 -1.585738 0.996875 -8.792470 -1.483075 0.679607 -4.936668 -7.469869 0.738632 -1.672207 9.595617 -3.875653 -7.445431 -4.173511 -0.328297 -0.025443 0.000000 0.000000 0.000000 1.926039 15.278604 0.672077 -64.311932 22.290691 17.476902 179.907002 -83.839576 179.948690 22.511169 -12.436555 -2.590104 -0.346918 0.362828 -0.000000 0.000000 0.000000 0.000000 0.000000 0.000000 0.000000 13.333961 4.928450 -0.534311 84.797567 23.263968 48.217063 179.233637 75.637330 179.992870 -4.890562 28.244495 -1.332121 0.172949 -1.334418 -0.000000 0.000000 0.000000 0.000000 0.000000 0.000000 0.000000 
8.872806 16.649495 3.493072 10.803015 52.397871 31.836594 -9.606985 0.718028 4.855649 -1.159170 -14.422346 -41.001158 0.520363 2.227748 61.687128 2.456405 13.418141 -13.386094 -1.248100 0.000000 -12.973900 9.672204 -2.393665 3.542559 15.674562 7.185833 -14.489208 2.923866 0.072260 21.070280 -0.580402 4.569295 -21.408844 179.847400 -0.000000 -14.840700 -1.982284 1.333159 -9.204723 -1.608686 1.039902 -5.027754 -7.504292 1.104593 -1.624484 9.525289 -3.651173 -7.343150 -4.146892 -0.328896 0.006291 0.000000 0.000000 0.000000 2.050541 15.774567 0.591947 -63.334071 22.831474 17.633631 179.930017 -83.437755 179.952292 22.478523 -12.437257 -2.585210 -0.350191 0.355536 -0.000000 0.000000 0.000000 0.000000 0.000000 0.000000 0.000000 13.140907 5.336909 -0.480551 85.701294 23.834183 49.835247 179.156139 75.445989 -179.994754 -3.961813 28.111170 -1.078049 0.161639 -1.347941 -0.000000 0.000000 0.000000 0.000000 0.000000 0.000000 0.000000 
9.064201 16.799021 3.652712 10.998229 51.931337 32.171798 -9.372270 0.643313 5.249658 -0.954590 -15.647793 -41.426574 0.421031 1.998570 58.672749 2.470860 13.351143 -12.520189 -1.012500 -0.000001 -13.514100 9.891172 -2.587842 3.532320 14.945305 6.385251 -12.800445 2.807693 0.203486 17.809924 -0.145870 5.120890 -16.699671 179.787899 0.000000 -10.051200 -2.409217 1.664116 -9.580263 -1.740329 1.402957 -5.114724 -7.541229 1.473076 -1.581590 9.478229 -3.436751 -7.234261 -4.116566 -0.329293 0.040322 0.000000 0.000000 0.000000 2.220010 16.278196 0.509635 -62.386524 23.308683 17.776746 179.952066 -83.060344 179.955622 22.449012 -12.404666 -2.574031 -0.353706 0.348405 -0.000000 0.000000 0.000000 0.000000 0.000000 0.000000 0.000000 12.959167 5.727430 -0.443958 86.603838 24.268548 51.308056 179.091481 75.343464 -179.983265 -3.125586 27.926586 -0.849074 0.151330 -1.356936 -0.000000 0.000000 0.000000 0.000000 0.000000 0.000000 0.000000 
